<svg viewBox="1470 100 525 630" xmlns="http://www.w3.org/2000/svg" role="img" aria-label="CFRQ">
  <path fill="#5abd2a" fill-rule="evenodd" transform="matrix(1 0 0 -1 1478 720)" d="M229.613 602.086C165.738 588.88 121.574 565.457 79.1567 522.847 44.9737 488.46 25.0127 453.076 7.79616 396.761 1.30911 375.581 0.809934 371.095-0.188046 313.036-1.43579 235.291 2.05768 214.858 26.7592 158.793 61.9405 78.8054 141.535 19.7492 237.348 3.05427 268.038-2.17869 314.447-1.68046 342.642 4.05072 373.332 10.2805 412.505 26.4772 436.957 42.674 459.912 57.8739 498.337 94.2546 510.564 112.196 529.277 139.855 533.02 161.783 519.546 165.271 511.811 167.265 510.314 165.77 490.353 135.12 481.62 121.415 469.644 104.471 464.154 97.494 448.934 78.5561 417.745 54.6346 392.295 42.674 357.114 26.2279 341.644 23.2379 293.737 22.9886 257.309 22.9886 250.322 23.7361 233.854 28.9691 157.753 52.6413 114.837 110.451 95.874 214.858 87.8898 258.216 87.8898 348.42 95.874 391.777 101.863 424.42 115.086 468.525 120.825 474.256 122.822 476.25 123.82 477.745 122.822 477.745 122.073 477.745 125.566 485.968 130.806 495.935 145.028 523.096 175.219 551.752 204.661 566.204 236.1 581.155 254.065 584.395 301.223 583.647 334.158 582.899 343.141 581.903 361.854 576.421 401.527 564.709 425.979 549.509 464.653 512.381 490.353 487.712 497.09 483.974 503.328 491.45 505.823 494.44 505.823 497.43 503.577 504.906 500.084 517.115 468.396 547.516 442.696 563.463 420.24 577.417 380.817 593.365 349.129 601.339 317.441 609.063 264.794 609.562 229.613 602.086Z"/>
</svg>
