<svg width="2059" height="721" xmlns="http://www.w3.org/2000/svg" xmlns:xlink="http://www.w3.org/1999/xlink" xml:space="preserve" overflow="hidden"><g transform="translate(1 0)"><path d="M229.613 602.086C165.738 588.88 121.574 565.457 79.1567 522.847 44.9737 488.46 25.0127 453.076 7.79616 396.761 1.30911 375.581 0.809934 371.095-0.188046 313.036-1.43579 235.291 2.05768 214.858 26.7592 158.793 61.9405 78.8054 141.535 19.7492 237.348 3.05427 268.038-2.17869 314.447-1.68046 342.642 4.05072 373.332 10.2805 412.505 26.4772 436.957 42.674 459.912 57.8739 498.337 94.2546 510.564 112.196 529.277 139.855 533.02 161.783 519.546 165.271 511.811 167.265 510.314 165.77 490.353 135.12 481.62 121.415 469.644 104.471 464.154 97.494 448.934 78.5561 417.745 54.6346 392.295 42.674 357.114 26.2279 341.644 23.2379 293.737 22.9886 257.309 22.9886 250.322 23.7361 233.854 28.9691 157.753 52.6413 114.837 110.451 95.874 214.858 87.8898 258.216 87.8898 348.42 95.874 391.777 101.863 424.42 115.086 468.525 120.825 474.256 122.822 476.25 123.82 477.745 122.822 477.745 122.073 477.745 125.566 485.968 130.806 495.935 145.028 523.096 175.219 551.752 204.661 566.204 236.1 581.155 254.065 584.395 301.223 583.647 334.158 582.899 343.141 581.903 361.854 576.421 401.527 564.709 425.979 549.509 464.653 512.381 490.353 487.712 497.09 483.974 503.328 491.45 505.823 494.44 505.823 497.43 503.577 504.906 500.084 517.115 468.396 547.516 442.696 563.463 420.24 577.417 380.817 593.365 349.129 601.339 317.441 609.063 264.794 609.562 229.613 602.086Z" fill-rule="evenodd" transform="matrix(1 0 0 -1 0 608)"/><path d="M235.877 714.782C182.32 698.351 155.417 686.4 131.254 668.475 66.7362 620.425 22.3959 555.695 4.70965 482.5-4.50714 445.404-4.75614 384.907 4.2113 335.363 15.9191 269.886 59.0141 201.67 114.564 161.587 154.42 132.707 212.461 113.537 270.502 110.301 283.456 109.554 298.651 107.811 304.131 106.317 316.088 103.08 340.002 92.1263 346.229 86.8979 348.471 84.9064 350.464 84.1596 350.464 84.9064 350.464 87.3961 412.74 46.3171 426.938 34.367 428.682 32.8733 432.917 30.6324 436.404 28.8899 439.892 27.3959 442.632 25.1553 442.632 23.9106 442.632 22.9147 443.379 22.1678 444.625 22.4166 445.621 22.6656 453.593 19.4291 462.56 15.1967 487.221 3.49567 503.413-0.487693 527.078-0.487693 548.252-0.487693 563.198 2.00195 574.158 7.47903 578.393 9.71961 579.639 12.4583 579.639 19.9273 579.639 29.1386 579.389 29.3877 571.169 29.3877 566.436 29.3877 554.977 27.6449 545.511 25.4043 534.551 22.9147 521.847 21.9188 509.392 22.4166 492.702 23.4125 486.723 25.1553 468.29 34.367 456.084 40.3419 441.885 48.0599 436.404 51.7942 430.924 55.5288 417.971 63.9933 407.758 70.4667 397.544 77.1884 381.851 87.147 372.883 92.8732 363.916 98.8484 352.208 105.819 346.727 108.558 335.767 114.035 336.265 114.533 357.688 119.014 378.613 123.247 421.956 141.172 441.386 154.118 505.157 195.944 548.003 261.919 563.696 341.836 565.689 352.79 568.429 364.492 569.425 368.226 570.422 371.711 571.169 393.371 570.92 416.773 570.172 511.878 542.522 588.558 490.709 640.342 471.777 659.014 438.397 683.662 424.447 688.89 420.711 690.383 412.74 693.869 406.512 696.608 396.797 701.089 371.389 708.309 336.763 716.276 321.568 720.01 249.079 718.765 235.877 714.782ZM299.149 694.865C301.889 688.143 300.394 627.147 297.654 625.404 296.16 624.408 294.416 624.657 293.42 625.902 292.672 627.147 286.445 630.882 279.47 634.367 248.332 649.803 203.493 677.686 206.483 679.678 221.18 689.139 257.05 698.351 279.719 698.848 294.416 699.097 297.903 698.351 299.149 694.865ZM363.916 692.624C372.136 690.633 385.339 686.151 393.559 682.417L408.256 675.695 398.541 670.964C393.31 668.226 379.858 660.508 368.399 654.035 357.19 647.313 347.226 641.836 346.727 641.836 345.98 641.836 340.002 638.599 333.525 634.367 326.799 630.384 320.074 626.898 318.33 626.898 315.092 626.898 314.344 694.367 317.333 697.604 319.824 700.093 344.984 697.355 363.916 692.624ZM223.173 646.566C243.101 635.363 268.758 620.923 279.719 614.201L300.145 602.002 300.394 563.911C300.394 531.794 299.896 525.57 296.907 525.57 294.914 525.57 293.17 526.566 293.17 527.811 293.17 529.056 292.174 529.554 291.178 528.807 289.932 528.06 284.95 530.301 279.968 533.537 274.986 537.023 270.502 539.761 270.004 539.761 266.018 539.761 218.938 569.388 220.433 570.881 221.429 572.126 220.682 572.126 218.938 571.13 217.194 570.135 214.454 570.384 212.71 571.628 210.967 572.873 202.995 577.604 194.775 581.836 186.555 586.317 170.114 595.778 158.157 602.749L136.485 615.446 142.962 624.408C150.435 634.367 182.569 666.732 185.06 666.732 186.056 666.732 202.995 657.521 223.173 646.566ZM447.863 648.807C484.73 617.935 484.232 619.678 460.817 606.732 450.105 601.006 438.646 594.284 435.159 592.043 431.672 589.803 419.465 582.832 407.758 576.608 396.05 570.384 377.866 559.927 367.154 553.703 356.443 547.479 347.226 542.251 346.727 542.251 345.98 542.251 339.504 538.267 332.031 533.537 324.557 528.807 317.583 524.823 316.835 524.823 316.088 524.823 315.59 542.5 315.59 564.408L315.59 603.994 322.565 608.475C326.301 610.965 332.031 614.699 335.269 616.442 340.998 619.429 363.168 631.877 401.53 653.786 411.245 659.263 421.209 663.994 424.198 663.994 427.188 664.243 437.401 657.521 447.863 648.807ZM512.879 567.894C519.854 553.703 525.334 542.002 524.587 541.504 522.345 539.512 487.72 519.844 486.723 519.844 485.976 519.844 477.008 514.865 466.546 508.641 456.084 502.666 447.614 498.184 447.614 499.18 447.614 499.927 445.621 498.931 443.379 496.94 434.661 489.222 412.242 477.521 409.751 479.014 408.256 480.01 407.758 479.512 408.754 478.018 410.249 475.28 401.281 471.048 396.548 472.292 395.302 472.541 394.804 472.043 395.801 471.048 397.046 470.052 387.331 463.579 374.627 456.608 362.172 449.637 344.735 439.429 336.265 434.45 327.546 429.222 319.575 425.487 318.081 426.483 314.344 428.973 314.842 503.662 318.828 506.898 320.323 508.143 339.753 519.346 361.674 531.546 383.595 543.993 411.992 559.678 424.447 566.898 437.152 574.118 448.112 579.595 449.109 579.595 450.105 579.346 451.6 580.093 452.347 581.338 453.094 582.583 462.311 588.309 472.524 594.035L491.207 604.242 495.442 598.765C497.933 595.778 505.655 581.836 512.879 567.894ZM153.175 586.068C166.377 578.848 187.551 567.147 199.757 560.176 212.212 552.956 230.895 542.5 241.357 536.774 251.819 531.047 259.791 525.321 259.044 524.077 258.296 522.583 258.794 522.334 260.289 523.33 264.524 525.819 296.658 505.653 298.651 499.18 300.643 491.96 301.142 444.16 299.149 432.209L297.654 422.998 285.947 429.222C279.719 432.458 271.249 437.438 267.015 439.927 252.068 449.139 240.61 455.612 204.739 475.031 196.519 479.512 177.089 490.467 161.644 499.678 146.2 508.641 127.517 519.097 119.795 522.832 112.322 526.815 105.596 531.297 104.849 533.288 103.105 537.52 108.336 554.699 118.55 579.595 122.784 589.803 126.272 598.516 126.272 599.014 126.272 600.508 130.755 598.516 153.175 586.068ZM535.796 511.628C539.284 499.429 542.522 484.491 545.76 465.819 547.006 458.599 546.259 457.106 539.782 453.869 535.796 451.629 531.562 450.134 530.814 450.384 529.818 450.384 528.323 449.637 527.576 448.392 525.583 445.156 469.037 412.79 465.799 412.79 464.304 412.79 462.56 412.043 462.062 410.799 461.315 409.056 411.245 380.425 408.754 380.425 408.007 380.425 403.772 377.686 399.537 374.45 395.053 371.213 382.598 363.993 371.638 358.019 360.677 352.292 344.236 343.081 335.02 337.852 326.052 332.375 317.832 328.143 317.084 328.143 316.337 328.143 315.59 345.321 315.59 366.234L315.59 404.077 336.016 415.28C347.226 421.504 358.685 427.479 361.425 428.973 364.414 430.218 367.154 431.96 367.901 432.956 368.649 433.703 377.118 438.683 386.584 443.911 396.299 449.139 406.761 455.114 410.249 457.603 423.451 466.317 454.589 482.251 456.084 480.757 456.831 479.761 457.578 480.508 457.578 482.002 457.578 483.745 461.564 486.981 466.297 489.222 471.03 491.711 485.229 499.678 497.684 507.147 510.388 514.616 522.096 520.591 524.089 520.591 525.832 520.591 527.327 521.587 527.327 522.832 527.327 523.828 528.323 524.823 529.569 524.823 530.814 524.823 533.554 518.848 535.796 511.628ZM151.68 485.985C163.388 479.512 172.605 472.79 171.858 471.545 170.861 470.301 171.608 470.052 173.352 471.048 175.096 472.292 185.807 467.562 199.259 459.346 229.649 441.421 234.133 438.931 280.217 413.288 290.43 407.811 296.907 402.334 298.402 398.101 300.394 393.122 301.142 325.653 299.149 325.653 295.412 325.653 243.848 357.77 245.343 359.263 246.339 360.508 245.592 360.508 243.848 359.512 241.108 357.77 216.447 370.716 178.583 393.869 173.85 396.857 167.125 400.591 163.637 402.334 154.918 406.566 129.51 420.508 108.834 432.707 92.6429 442.168 91.3972 443.413 91.3972 451.379 91.3972 459.346 94.8849 488.475 97.8739 506.898L99.1196 515.114 114.564 506.649C123.033 501.919 139.723 492.707 151.68 485.985ZM549.746 417.272C549.497 399.346 547.006 371.711 544.017 357.023 543.518 354.533 539.284 350.55 534.551 348.06 527.078 344.325 492.452 324.657 482.489 318.184 480.496 316.94 470.282 311.213 460.069 305.487 449.856 299.761 423.451 284.823 401.53 272.126 379.609 259.678 353.952 244.989 344.236 239.761 334.771 234.533 324.308 228.558 321.319 226.566L315.839 223.081 315.839 265.653 315.839 308.226 325.803 313.205C331.034 315.944 346.478 324.657 359.681 332.375 392.811 351.297 399.288 355.031 415.231 363.744 422.704 367.728 440.639 377.935 454.838 386.151 469.037 394.367 482.239 401.089 483.983 401.089 485.727 401.089 486.723 401.836 486.225 402.583 485.478 404.077 544.017 437.438 548.003 437.687 548.999 437.687 549.746 428.475 549.746 417.272ZM105.845 416.027C112.322 412.541 128.264 403.081 141.218 395.363 164.634 381.421 192.035 365.985 207.977 358.019 212.461 355.778 215.201 353.039 214.205 351.794 213.209 350.798 213.458 350.55 214.952 351.297 216.447 352.043 226.909 347.313 238.368 340.591 249.827 333.62 259.542 328.143 260.04 328.143 260.538 328.143 267.015 324.409 274.239 319.678 281.462 315.197 289.683 310.467 292.423 309.72 295.412 308.724 298.152 305.985 298.9 303.495 300.643 296.027 301.142 246.732 299.149 234.533L297.654 223.579 285.947 230.052C279.719 233.786 271.249 238.516 267.015 240.508 263.029 242.5 236.624 257.438 208.475 273.371 180.327 289.305 148.691 307.23 138.229 313.205 127.517 319.18 119.795 325.155 120.542 326.4 121.29 327.894 120.792 328.143 119.048 327.147 116.308 325.404 99.3686 334.118 95.8813 339.097 92.3939 344.325 88.4081 422.749 91.8955 422.749 93.1412 422.749 99.3686 419.761 105.845 416.027ZM536.295 319.429C533.554 304.74 515.619 263.911 503.164 242.749 468.29 184.989 406.263 142.168 343.738 132.707 330.287 130.716 318.579 128.973 317.333 128.973 316.337 128.973 315.839 145.902 316.088 166.815L316.835 204.408 350.464 224.077C368.898 235.031 393.559 248.973 405.267 255.197 416.974 261.421 435.657 272.126 447.116 278.599 458.326 285.321 468.29 290.798 469.286 290.798 470.282 290.798 472.773 292.292 474.766 294.284 477.008 296.027 487.47 302.251 498.431 308.226 509.142 313.952 521.349 320.674 525.832 323.413 536.544 329.886 538.038 329.388 536.295 319.429ZM163.637 279.595C190.291 264.408 213.956 251.214 215.949 250.218 217.942 249.222 224.916 245.487 231.144 241.504 237.621 237.769 255.058 227.811 270.253 219.097 288.936 208.392 298.152 201.67 299.149 197.935 301.142 190.716 300.893 141.919 299.149 134.699 297.903 129.968 295.911 128.973 288.438 128.973 274.737 128.973 235.877 135.695 232.389 138.682 230.646 140.176 228.653 140.674 227.905 139.927 225.913 138.184 188.547 156.608 188.547 159.346 188.547 160.342 187.053 161.338 185.06 161.338 181.572 161.338 153.673 187.479 143.958 199.927 140.969 204.159 136.983 210.135 135.488 213.62 133.994 217.106 132.001 220.342 131.005 221.089 125.026 225.57 104.6 278.35 102.607 293.786 102.109 297.769 100.863 304.491 100.116 308.475L98.3723 316.193 106.842 311.711C111.325 309.471 136.983 295.031 163.637 279.595Z" fill="#5ABD2A" fill-rule="evenodd" transform="matrix(1 0 0 -1 1478 720)"/><path d="M140.013 583.111C12.7619 582.363 3.0121 582.115 0.761976 577.879-0.487853 575.388-0.487853 563.679 1.01187 547.985 3.76215 517.841 2.51195 20.5957-0.487853 12.8731-1.73804 9.3853-0.988002 6.39597 1.76191 3.40664 5.26187 0.168078 12.0119-0.579616 44.2623-0.579616 65.2624-0.579616 84.0123-0.0811534 86.0122 0.666179 88.7625 1.66274 89.0124 35.2938 88.5122 190.247L87.7625 378.832 208.513 377.835C275.013 377.337 331.764 377.835 334.763 378.832 337.514 379.828 340.764 382.32 341.263 384.063 343.264 389.295 340.513 397.516 336.014 399.509 333.514 400.505 277.013 401.004 210.013 400.754L88.0124 400.007 88.0124 480.224 88.0124 560.192 198.013 559.694C316.263 559.444 315.514 559.444 315.514 572.15 315.514 582.613 311.263 584.855 293.263 584.357 284.013 583.858 215.263 583.36 140.013 583.111Z" fill-rule="evenodd" transform="matrix(1 0 0 -1 604 596)"/><path d="M0.434535 584.199C-0.813129 581.462-0.813129 569.768 0.434535 556.083 2.9295 527.718 1.68184 27.1098-1.06252 19.6453-2.31018 16.1622-1.56165 13.1763 1.18306 10.1907 4.67594 6.95611 11.4123 6.20971 44.8448 6.20971 69.5447 6.20971 85.0136 7.20504 86.0115 8.69784 87.0094 10.1907 87.5086 136.338 87.2588 289.108L87.0094 566.782 132.667 565.289C201.029 563.05 241.946 552.848 290.847 525.977 327.024 506.072 354.718 477.21 370.686 442.874 393.39 393.858 399.628 339.866 387.652 293.587 378.67 259.002 350.976 217.202 322.533 194.809 309.31 184.608 268.143 162.712 255.419 159.229 250.928 158.233 247.934 160.224 240.449 169.679 227.475 186.1 207.266 202.771 190.051 210.733 178.824 216.207 172.337 217.699 158.615 217.699 134.913 217.699 121.939 211.479 114.454 196.301 100.981 168.186 119.693 140.817 160.112 130.366 182.317 124.644 196.538 124.395 220.989 129.371 231.218 131.611 240.699 132.606 241.697 131.86 242.944 131.113 249.431 121.658 255.918 110.711 270.638 85.8293 307.314 42.2875 323.781 30.0957 342.992 16.1622 370.686 4.21906 391.644 0.984519 413.849-2.49858 429.817-0.0104468 431.064 7.20504 432.561 14.1716 428.569 16.4108 411.354 17.6551 376.424 20.1432 351.974 32.5839 321.036 62.9386 303.821 79.8577 264.401 132.108 264.401 137.831 264.401 138.826 270.888 142.31 278.872 145.046 299.829 152.76 332.264 173.66 351.974 192.321 371.934 210.981 396.135 245.317 404.118 266.715 422.581 315.482 419.587 392.863 397.133 442.127 376.674 487.162 342.493 522.493 294.34 548.121 267.644 562.552 252.425 568.026 219.741 574.992 172.586 585.443 138.905 588.18 68.0476 588.428 8.16882 588.428 2.43036 588.18 0.434535 584.199ZM186.808 190.33C194.542 186.349 207.516 176.646 215.5 168.186L230.22 153.257 222.985 151.267C218.993 150.272 205.021 149.276 192.047 149.276 155.122 149.276 134.663 160.722 134.663 180.875 134.663 185.354 135.661 190.33 136.659 192.072 142.647 201.527 166.599 200.531 186.808 190.33Z" fill-rule="evenodd" transform="matrix(1 0 0 -1 1001 602)"/></g></svg>